<?xml version="1.0" standalone="no"?>
<!DOCTYPE svg PUBLIC "-//W3C//DTD SVG 20010904//EN"
 "http://www.w3.org/TR/2001/REC-SVG-20010904/DTD/svg10.dtd">
<svg version="1.0" xmlns="http://www.w3.org/2000/svg"
 width="720.000000pt" height="360.000000pt" viewBox="0 0 720.000000 360.000000"
 preserveAspectRatio="xMidYMid meet">

<g transform="translate(0.000000,360.000000) scale(0.100000,-0.100000)"
fill="#000000" stroke="none">
<path d="M631 3154 c-29 -21 -81 -129 -81 -170 0 -17 8 -38 18 -47 32 -28 344
-197 587 -317 275 -135 480 -226 758 -336 l194 -77 -8 -36 c-12 -52 -11 -85 5
-106 13 -17 15 -18 38 -3 18 12 57 61 84 106 6 9 62 -30 82 -57 13 -18 37 -34
61 -41 31 -8 40 -16 44 -39 8 -37 -1 -72 -24 -94 -25 -24 -24 -50 5 -84 13
-15 26 -44 30 -64 3 -20 31 -78 62 -129 30 -50 54 -94 51 -96 -8 -9 -513 -156
-837 -244 -340 -93 -837 -216 -997 -247 -79 -15 -143 -31 -143 -35 0 -12 146
-77 221 -98 98 -27 132 -25 305 11 414 86 956 226 1408 364 82 25 153 45 157
45 4 0 14 -17 22 -37 37 -93 180 -390 197 -408 9 -11 20 -31 23 -45 28 -133
142 -316 250 -402 61 -48 90 -48 154 -4 28 19 97 58 154 86 l103 52 91 -4
c106 -5 147 -23 214 -92 56 -57 97 -72 143 -53 39 17 182 140 252 218 104 115
137 184 171 354 18 91 35 142 69 210 68 138 55 130 164 95 366 -119 1002 -284
1461 -380 l184 -39 92 24 c87 22 245 88 245 103 0 4 -64 20 -142 35 -249 48
-798 189 -1338 343 -406 115 -485 140 -485 150 0 5 28 61 63 125 34 64 62 119
62 123 0 3 14 25 30 48 45 61 37 114 -17 122 -31 5 -10 76 23 76 7 0 30 20 50
44 31 37 82 74 89 64 1 -2 16 -24 34 -50 64 -96 104 -83 99 30 l-3 63 220 88
c292 117 433 180 720 321 294 145 563 293 592 325 19 21 20 29 11 62 -17 61
-56 131 -84 149 -25 17 -29 15 -332 -134 -321 -157 -535 -254 -812 -367 -176
-72 -418 -165 -429 -165 -3 0 -15 16 -26 36 -11 20 -36 51 -57 69 -27 22 -38
40 -38 59 0 29 -48 86 -72 86 -8 0 -20 15 -26 34 -18 49 -69 72 -129 57 -59
-15 -190 -81 -278 -141 -146 -98 -229 -124 -345 -109 -72 10 -95 22 -176 86
-33 26 -95 66 -136 88 -66 34 -79 38 -100 28 -12 -6 -36 -14 -53 -18 -55 -12
-149 -64 -209 -115 -83 -72 -128 -94 -169 -81 -18 6 -54 13 -80 16 -47 6 -117
39 -358 168 -117 63 -219 95 -253 79 -12 -5 -31 -30 -44 -55 -13 -25 -32 -49
-43 -52 -23 -8 -49 -54 -49 -89 0 -19 -4 -24 -15 -19 -19 7 -48 -18 -88 -77
-17 -25 -31 -47 -33 -48 -4 -6 -242 84 -464 175 -278 114 -558 242 -842 384
-131 66 -241 119 -246 119 -4 0 -18 -7 -31 -16z m56 -22 c8 -5 -3 -36 -35
-101 -50 -102 -69 -111 -28 -12 28 66 32 91 15 91 -8 0 -8 5 1 15 14 16 29 19
47 7z m5873 -7 c9 -10 9 -15 1 -15 -17 0 -14 -20 14 -89 41 -100 23 -94 -27
10 -32 65 -43 96 -35 101 18 12 33 9 47 -7z m-5791 -197 c1 -30 -2 -36 -15
-31 -11 4 -12 9 -5 16 11 11 15 47 6 47 -4 0 -19 -7 -34 -15 -27 -14 -29 -13
-35 8 -11 43 -6 57 32 81 l37 23 7 -46 c3 -25 7 -63 7 -83z m5749 68 c2 -10 1
-29 -2 -42 -6 -23 -8 -24 -35 -9 -26 13 -30 13 -35 -2 -4 -8 -1 -22 5 -29 10
-12 8 -13 -6 -8 -14 6 -16 15 -11 52 3 25 6 58 6 74 l0 28 38 -23 c20 -13 39
-32 40 -41z m-5711 2 c-3 -8 -6 -5 -6 6 -1 11 2 17 5 13 3 -3 4 -12 1 -19z
m5590 0 c-3 -8 -6 -5 -6 6 -1 11 2 17 5 13 3 -3 4 -12 1 -19z m-5508 -125 c1
-34 -2 -41 -14 -37 -12 5 -13 10 -4 20 6 8 8 21 5 30 -5 13 -9 13 -33 -6 l-28
-22 -7 39 c-6 35 -3 41 30 73 l37 35 7 -45 c3 -25 7 -64 7 -87z m5494 81 c15
-8 17 -18 11 -52 l-6 -42 -29 21 c-26 18 -30 19 -35 5 -4 -9 -1 -23 6 -31 10
-12 9 -15 -5 -15 -16 0 -17 7 -11 61 3 34 6 72 6 85 l0 23 23 -23 c12 -12 31
-27 40 -32z m-5456 -16 c-3 -7 -5 -2 -5 12 0 14 2 19 5 13 2 -7 2 -19 0 -25z
m5350 0 c-3 -8 -6 -5 -6 6 -1 11 2 17 5 13 3 -3 4 -12 1 -19z m-5269 -118 c0
-36 -2 -59 -5 -52 -2 6 -10 9 -16 6 -8 -5 -8 -2 1 7 13 15 16 49 4 49 -5 0
-17 -7 -28 -15 -28 -21 -32 -19 -36 26 -3 36 0 43 27 62 16 12 32 26 35 32 7
17 18 -47 18 -115z m5244 78 c23 -16 26 -23 21 -56 -7 -47 -7 -47 -35 -28 -12
9 -26 16 -30 16 -13 0 -9 -35 5 -49 8 -9 8 -12 0 -7 -6 3 -14 0 -16 -6 -8 -19
-8 94 -1 131 7 32 8 32 56 -1z m-5205 -30 c-3 -8 -6 -5 -6 6 -1 11 2 17 5 13
3 -3 4 -12 1 -19z m5110 0 c-3 -8 -6 -5 -6 6 -1 11 2 17 5 13 3 -3 4 -12 1
-19z m-5028 -81 c-1 -40 -4 -59 -6 -44 l-4 28 -35 -21 -34 -22 0 44 c0 36 5
47 32 70 18 14 36 24 40 22 5 -3 7 -38 7 -77z m5021 -14 l0 -45 -36 23 -37 22
5 -26 c3 -15 1 -30 -3 -33 -10 -6 -12 116 -3 140 5 13 11 11 40 -10 30 -23 34
-32 34 -71z m-4979 34 c-8 -8 -11 -3 -11 19 1 25 2 27 11 11 8 -14 8 -22 0
-30z m4869 16 c0 -19 -3 -24 -10 -17 -6 6 -8 18 -4 27 9 24 14 21 14 -10z
m-4790 -153 l-5 -25 -3 28 c-4 31 -9 32 -36 12 -30 -23 -36 -18 -36 28 0 37 5
45 38 69 l37 26 5 -56 c3 -32 3 -68 0 -82z m4780 43 c0 -46 -6 -51 -36 -28
-27 20 -32 19 -37 -12 -2 -16 -5 9 -6 55 l-1 83 40 -28 c35 -25 40 -32 40 -70z
m-110 51 c0 -14 -4 -23 -9 -20 -5 3 -7 15 -4 26 7 28 13 25 13 -6z m-4628 -16
c-9 -9 -12 -7 -12 12 0 19 3 21 12 12 9 -9 9 -15 0 -24z m78 -45 c0 -21 3 -55
6 -75 5 -27 3 -38 -6 -38 -7 0 -10 7 -6 16 11 28 -5 35 -34 14 l-28 -20 -6 23
c-11 43 -6 62 26 89 18 15 36 28 41 28 4 0 7 -17 7 -37z m4506 11 c34 -26 43
-58 28 -98 -5 -14 -10 -13 -34 4 -29 21 -45 14 -34 -14 4 -9 1 -16 -6 -16 -9
0 -11 11 -6 38 3 20 6 54 6 75 0 20 3 37 6 37 3 0 21 -12 40 -26z m-4456 -16
c0 -5 -4 -8 -10 -8 -5 0 -10 10 -10 23 0 18 2 19 10 7 5 -8 10 -18 10 -22z
m4376 -5 c-11 -11 -17 4 -9 23 7 18 8 18 11 1 2 -10 1 -21 -2 -24z m-2263 -15
c-28 -18 -82 -59 -119 -91 -70 -59 -136 -90 -214 -100 -38 -5 -41 -5 -20 5 94
41 134 65 205 123 74 61 134 92 180 94 12 1 0 -11 -32 -31z m-2034 -80 c1 -38
-3 -68 -8 -68 -4 0 -6 11 -3 25 5 29 0 31 -34 9 -30 -20 -31 -19 -35 27 -3 31
2 42 31 70 42 41 48 34 49 -63z m4283 -10 c-5 -42 -9 -45 -38 -23 -28 21 -37
18 -32 -10 3 -14 1 -25 -3 -25 -10 0 -12 113 -3 145 5 19 8 18 43 -15 34 -31
37 -39 33 -72z m-4239 67 c4 -8 2 -17 -3 -20 -6 -4 -10 3 -10 14 0 25 6 27 13
6z m4127 -6 c0 -11 -4 -18 -10 -14 -5 3 -7 12 -3 20 7 21 13 19 13 -6z m-3090
-35 c-18 -28 -21 -44 -16 -75 7 -46 -5 -45 -24 1 -16 39 -7 71 27 92 38 23 38
23 13 -18z m-951 -87 c0 -32 -3 -56 -8 -53 -4 3 -6 18 -3 33 l5 26 -35 -21
-35 -22 -7 42 c-7 40 -5 44 31 74 l38 32 6 -26 c4 -15 7 -53 8 -85z m4030 34
c-1 -9 -4 -29 -8 -44 l-6 -29 -27 21 c-34 27 -41 26 -36 -4 3 -14 1 -28 -3
-31 -10 -6 -12 73 -3 128 l6 37 39 -31 c22 -17 38 -38 38 -47z m-3990 19 c0
-10 -3 -8 -9 5 -12 27 -12 43 0 25 5 -8 9 -22 9 -30z m3872 9 c-5 -13 -10 -19
-10 -12 -1 15 10 45 15 40 3 -2 0 -15 -5 -28z m-3205 -23 c2 -12 1 -13 -3 -1
-2 8 -8 15 -13 15 -12 0 -54 -59 -88 -125 -17 -33 -31 -56 -32 -52 0 4 13 34
29 66 51 99 103 147 107 97z m2578 -7 c27 -31 60 -89 52 -89 -2 0 -16 20 -30
45 -15 24 -36 51 -48 60 -13 8 -17 15 -11 15 6 0 23 -14 37 -31z m-3160 -31
c8 -75 8 -98 -5 -98 -6 0 -8 9 -4 20 8 24 -3 25 -34 4 -28 -20 -41 -7 -41 41
0 22 9 37 32 57 18 15 36 28 39 28 3 0 9 -24 13 -52z m3742 26 c26 -20 34 -34
34 -58 0 -49 -13 -62 -41 -42 -31 21 -42 20 -34 -4 4 -12 2 -20 -6 -20 -8 0
-10 15 -5 53 3 28 6 62 6 75 0 28 4 28 46 -4z m-73 -4 c-3 -12 -8 -19 -11 -16
-5 6 5 36 12 36 2 0 2 -9 -1 -20z m-3636 -12 c-3 -8 -6 -5 -6 6 -1 11 2 17 5
13 3 -3 4 -12 1 -19z m1742 -206 c0 -47 7 -98 15 -117 19 -44 3 -46 -17 -2
-16 34 -30 291 -18 331 7 25 18 -90 20 -212z m-1644 115 c5 -44 4 -67 -3 -67
-6 0 -8 9 -5 20 7 26 -7 25 -41 -1 -28 -22 -30 -21 -40 38 -4 27 0 35 29 58
19 14 35 34 36 43 1 35 17 -24 24 -91z m483 -2 c-2 -19 -9 -30 -18 -30 -9 0
-14 8 -12 20 1 11 5 43 9 70 l7 50 8 -40 c5 -22 8 -53 6 -70z m3011 46 c26
-19 30 -27 25 -54 -10 -59 -12 -60 -40 -38 -34 26 -48 27 -41 1 3 -11 1 -20
-5 -20 -9 0 -5 74 9 145 5 28 6 28 14 9 4 -12 21 -31 38 -43z m-3059 7 c0 -36
-11 -68 -21 -62 -5 3 -9 1 -9 -4 0 -6 16 -19 35 -31 l35 -21 -34 -68 c-19 -38
-38 -85 -41 -106 -6 -27 -11 -36 -22 -32 -44 17 -63 18 -63 3 0 -9 -11 -29
-25 -44 l-24 -28 -1 37 c0 59 97 309 142 366 16 19 28 14 28 -10z m2544 -80
c-19 -31 -38 16 -28 69 l7 38 13 -49 c7 -28 11 -53 8 -58z m44 89 c46 -54 142
-305 142 -366 l-1 -36 -24 28 c-14 15 -25 35 -25 44 0 15 -19 14 -64 -3 -12
-5 -16 0 -16 21 0 15 -13 60 -30 102 -36 90 -37 97 -5 111 14 6 25 16 25 22 0
6 -4 9 -9 6 -8 -5 -21 38 -21 70 0 18 14 18 28 1z m-2991 -19 c-3 -8 -6 -5 -6
6 -1 11 2 17 5 13 3 -3 4 -12 1 -19z m3370 0 c-3 -8 -6 -5 -6 6 -1 11 2 17 5
13 3 -3 4 -12 1 -19z m-3309 -130 c-18 -16 -35 -28 -39 -28 -3 0 -9 19 -13 41
-6 39 -4 44 31 78 l38 36 8 -50 c8 -48 7 -51 -25 -77z m185 117 c32 -13 35
-18 28 -37 -5 -13 -15 -21 -23 -19 -7 2 -21 6 -30 8 -18 5 -45 -39 -68 -112
-17 -53 -20 -59 -32 -47 -18 18 59 222 83 222 3 0 23 -7 42 -15z m2956 -47
c39 -83 56 -147 42 -161 -7 -7 -12 -6 -15 4 -3 8 -14 41 -26 74 -26 76 -38 89
-74 76 -22 -9 -28 -8 -33 7 -3 9 -8 20 -10 24 -4 8 52 36 74 37 7 1 25 -27 42
-61z m156 -57 c-4 -23 -10 -41 -14 -41 -4 0 -21 12 -39 28 -30 26 -32 30 -26
77 l6 50 40 -37 c38 -35 40 -39 33 -77z m-266 14 c0 -5 -6 1 -14 15 -8 14 -14
30 -14 35 0 6 6 -1 14 -15 8 -14 14 -29 14 -35z m-1752 -104 c42 -30 83 -77
83 -94 0 -5 -10 3 -22 18 -33 43 -98 85 -130 85 -17 0 -27 4 -23 10 11 19 52
10 92 -19z m-228 -82 c-6 -13 -12 -49 -13 -81 l-1 -59 -49 -14 c-27 -8 -84
-14 -125 -14 l-76 2 70 8 c39 5 89 17 113 26 38 14 42 19 42 50 0 20 10 53 22
74 23 41 39 48 17 8z m65 -149 c4 -8 0 -6 -8 4 -10 12 -15 37 -15 60 l2 41 6
-45 c4 -25 10 -52 15 -60z m-409 -83 c-48 -114 36 -348 212 -592 68 -93 50
-86 -27 12 -69 87 -160 253 -195 358 -10 28 -20 79 -22 116 -5 54 -2 72 16
108 27 51 38 50 16 -2z m603 -7 c34 -7 65 -17 69 -22 3 -6 -3 -8 -13 -5 -11 3
-44 11 -74 17 -30 7 -62 17 -70 22 -12 7 -11 8 5 5 11 -3 48 -11 83 -17z
m-270 -115 c99 -125 142 -152 268 -169 109 -14 109 -32 0 -24 -118 10 -188 57
-285 192 -101 142 -95 142 17 1z m1792 77 c0 -4 -15 -25 -34 -45 -35 -38 -66
-48 -66 -22 0 8 6 12 13 9 7 -2 29 11 48 31 37 38 39 39 39 27z m-2322 -46
c21 -1 29 -16 16 -29 -8 -8 -60 18 -70 35 -5 8 -2 9 12 3 10 -5 29 -9 42 -9z
m563 -163 c6 -17 13 -23 17 -16 5 8 12 7 26 -3 19 -13 19 -14 1 -34 -26 -28
-36 -18 -59 58 -10 31 2 28 15 -5z m1110 -29 c-21 -46 -22 -47 -41 -29 -19 17
-19 19 -3 37 12 14 18 15 24 6 5 -8 11 -3 19 16 6 16 13 26 16 23 3 -3 -4 -27
-15 -53z m-787 16 c41 -6 108 -22 147 -35 40 -14 81 -25 91 -25 11 0 16 -5 13
-11 -8 -12 -46 -6 -127 22 -32 10 -90 24 -130 30 -72 11 -123 28 -86 29 9 0
50 -5 92 -10z m-184 -55 c40 -21 45 -51 21 -120 -12 -33 -21 -70 -21 -83 0
-21 -2 -23 -16 -11 -9 7 -29 36 -45 64 -33 57 -38 118 -12 147 20 22 35 23 73
3z m911 -18 c17 -31 2 -95 -39 -156 -33 -50 -37 -53 -40 -31 -2 14 -12 53 -23
87 -24 73 -19 100 23 118 37 15 65 9 79 -18z m-824 -28 c-8 -13 -13 -15 -19
-6 -14 22 -9 35 11 30 17 -4 18 -8 8 -24z m165 1 c-15 -27 -18 -28 -29 -13
-21 28 -15 43 17 43 l29 0 -17 -30z m372 22 c2 -4 -3 -17 -12 -30 l-17 -22
-17 30 -17 30 29 0 c16 0 31 -4 34 -8z m141 -22 c-6 -20 -7 -21 -20 -3 -12 15
-11 19 3 24 22 8 25 5 17 -21z m-556 -28 c16 -53 8 -65 -48 -64 -84 1 -98 19
-61 80 18 29 25 33 58 30 34 -3 38 -6 51 -46z m510 23 c51 -55 28 -88 -57 -83
-56 4 -64 24 -32 75 23 38 59 41 89 8z m-385 -2 c36 -18 65 -71 51 -93 -8 -13
-50 -13 -97 1 -43 11 -48 30 -23 79 18 35 23 36 69 13z m230 -24 c10 -23 13
-45 9 -49 -13 -12 -74 -30 -99 -30 -31 0 -37 14 -24 54 8 25 21 38 48 49 20 8
40 15 43 16 4 1 14 -18 23 -40z m-135 -29 c-6 -16 -12 -30 -14 -30 -2 0 -8 14
-14 30 -9 28 -8 30 14 30 22 0 23 -2 14 -30z m-1028 -53 c7 -12 6 -19 -3 -22
-108 -40 -750 -226 -963 -279 -458 -114 -632 -147 -810 -152 l-150 -4 205 49
c474 113 963 244 1435 384 269 80 256 79 286 24z m2364 -41 c443 -131 919
-258 1375 -367 l205 -49 -150 4 c-157 5 -195 11 -490 77 -249 56 -427 101
-651 164 -214 61 -615 183 -621 189 -3 2 3 19 12 36 20 38 -13 44 320 -54z
m-2325 -36 c8 -15 8 -21 -2 -25 -338 -112 -1040 -297 -1492 -395 l-238 -51
-77 20 c-42 10 -96 28 -121 39 l-45 20 85 -5 c82 -6 140 -23 140 -43 0 -6 5
-10 10 -10 6 0 10 6 10 14 0 19 39 33 165 57 384 73 933 215 1425 368 115 36
126 37 140 11z m2109 -19 c472 -148 951 -272 1356 -352 166 -32 205 -45 205
-65 0 -8 5 -14 10 -14 6 0 10 4 10 10 0 20 58 37 140 42 l85 5 -43 -19 c-24
-11 -78 -28 -121 -39 l-79 -20 -238 51 c-270 58 -771 183 -1039 260 -183 52
-437 130 -443 135 -8 7 10 45 20 45 6 0 67 -18 137 -39z m-1650 -62 c30 -27
33 -34 28 -70 -3 -22 -1 -53 3 -70 10 -33 1 -37 -35 -13 -30 20 -55 82 -55
139 0 54 12 57 59 14z m1087 -54 c-5 -30 -18 -58 -38 -80 -37 -43 -62 -47 -47
-8 5 14 8 47 7 72 -2 34 0 45 10 43 8 -1 11 2 8 7 -4 5 6 19 21 31 27 21 28
21 37 1 4 -11 5 -40 2 -66z m-933 -69 c32 -51 38 -100 14 -123 -26 -27 -64 -2
-92 59 -29 62 -31 95 -10 146 l16 37 22 -37 c12 -20 35 -57 50 -82z m813 79
c20 -48 18 -82 -10 -142 -25 -53 -50 -74 -76 -65 -43 15 -39 64 10 143 23 35
43 72 47 82 8 24 12 22 29 -18z m-495 5 c26 -15 24 -46 -6 -75 -30 -31 -69
-32 -89 -3 -22 31 -20 54 6 72 26 18 61 20 89 6z m164 -2 c30 -13 34 -52 8
-80 -22 -25 -49 -23 -78 7 -55 54 -5 107 70 73z m-330 -28 c18 0 27 -43 15
-74 -14 -38 -46 -51 -76 -32 -37 25 -60 65 -47 85 11 17 58 31 81 25 8 -2 20
-4 27 -4z m224 -30 c9 -28 8 -30 -14 -30 -22 0 -23 2 -14 30 6 17 12 30 14 30
2 0 8 -13 14 -30z m295 15 c19 -20 8 -52 -27 -78 -49 -38 -107 6 -91 69 5 21
12 24 54 24 30 0 54 -6 64 -15z m-462 -66 c-19 -7 -27 4 -18 28 6 14 8 14 21
-3 12 -17 11 -20 -3 -25z m328 17 c0 -19 -4 -23 -19 -19 -17 4 -18 8 -8 24 16
26 27 24 27 -5z m-835 -50 c9 -30 20 -102 25 -161 6 -84 13 -112 30 -138 22
-31 127 -125 179 -159 39 -27 16 -22 -53 12 -72 34 -150 98 -172 143 -12 22
-17 66 -18 171 -2 78 -6 151 -11 164 -4 12 -5 22 -1 22 3 0 13 -24 21 -54z
m382 -19 c-6 -20 -27 -19 -27 2 0 14 5 19 15 14 9 -3 14 -10 12 -16z m579 -15
c-4 -3 -12 0 -19 7 -9 9 -9 14 3 21 11 7 16 5 18 -6 2 -9 1 -18 -2 -22z m-756
-3 c32 -44 18 -47 -27 -5 -34 32 -36 35 -16 36 13 0 30 -12 43 -31z m937 -5
c-45 -41 -55 -40 -30 5 13 22 25 31 43 31 24 -1 24 -2 -13 -36z m-977 -39 c14
-8 45 -15 70 -15 41 -1 43 -2 22 -13 -17 -8 -35 -8 -65 0 -23 7 -43 10 -45 9
-5 -6 49 -65 89 -97 l39 -31 32 31 c42 41 127 72 208 77 l65 4 -60 -14 c-91
-21 -163 -53 -208 -91 -37 -32 -41 -33 -67 -20 -53 27 -88 66 -104 112 -24 70
-22 74 24 48z m539 -79 c9 -11 7 -12 -13 -9 -33 7 -92 -23 -117 -59 -12 -16
-30 -51 -40 -76 -10 -26 -18 -39 -19 -28 -1 78 81 186 144 186 18 0 39 -6 45
-14z"/>
</g>
</svg>
